# xmcd
#
# Track frame offsets: 
#        150
#        15168
#        29145
#        42841
#        57238
#        71507
#        83948
#        99080
#        113039
#        126431
#        139915
#        153912
#        168502
#        183476
#        197122
#        211073
#        224674
#        238127
#
# Disc length: 3336 seconds
#
# Revision: 1
# Processed by: cddbd v1.5.2PL0 Copyright (c) Steve Scherf et al.
# Submitted via: ExactAudioCopy v0.95a5
#
DISCID=010d0612
DTITLE=Frank Sinatra - Everybody Loves Somebody [CD 2)
DYEAR=2005
DGENRE=Jazz, Crooner
TTITLE0=Stella By Starlight
TTITLE1=If I Had You
TTITLE2=One For My Baby
TTITLE3=But Beautiful
TTITLE4=You're My Girl
TTITLE5=S'Posin'
TTITLE6=The Night We Called It A Day
TTITLE7=What'll I Do
TTITLE8=The Music Stopped
TTITLE9=Fools Rush In
TTITLE10=I'm Glad There Is You
TTITLE11=Autumn In New York
TTITLE12=Nature Boy
TTITLE13=Once In Love With Amy
TTITLE14=Some Enchanted Evening
TTITLE15=The Hucklebuck
TTITLE16=Let's Take An Old-Fashioned Walk
TTITLE17=It All Depends On You
EXTD=YEAR: 2005
EXTT0=
EXTT1=
EXTT2=
EXTT3=
EXTT4=
EXTT5=
EXTT6=
EXTT7=
EXTT8=
EXTT9=
EXTT10=
EXTT11=
EXTT12=
EXTT13=
EXTT14=
EXTT15=
EXTT16=
EXTT17=
PLAYORDER=
